<?xml version="1.0" encoding="UTF-8"?>
<svg width="60px" height="60px" viewBox="0 0 60 60" version="1.1" xmlns="http://www.w3.org/2000/svg" xmlns:xlink="http://www.w3.org/1999/xlink">
    <!-- Generator: Sketch 55.2 (78181) - https://sketchapp.com -->
    <title>ill_email</title>
    <desc>Created with Sketch.</desc>
    <g id="ill_email" stroke="none" stroke-width="1" fill="none" fill-rule="evenodd">
        <g id="Group-34-Copy-4" transform="translate(-13.000000, -10.000000)">
            <path d="M69.63965,32.3734778 L69.63965,64.0841444 C69.63965,64.6092556 69.4639833,65.0899778 69.1730944,65.4828667 C68.7509278,66.0797556 68.0510944,66.4594222 67.2643722,66.4594222 L17.7159833,66.4594222 C16.9292611,66.4594222 16.2303722,66.0797556 15.8072611,65.4828667 C15.5163722,65.0899778 15.3407056,64.6092556 15.3407056,64.0841444 L15.3407056,32.3734778 L42.4755389,10.6163111 L42.5048167,10.6163111 L69.63965,32.3734778 Z" id="Fill-4" fill="#D0D6E1"></path>
            <path d="M65.5298056,35.0569278 L42.4900833,49.8167056 L19.3464722,34.9823167 C19.3464722,34.9823167 19.1424722,21.8375389 19.3615833,21.4012056 C19.3615833,19.71065 21.6216389,19.6662611 21.6216389,19.6662611 L63.3736389,19.6662611 C63.3736389,19.6662611 65.5146944,19.7852611 65.5146944,21.4758167 C65.7338056,21.9130944 65.5298056,35.0569278 65.5298056,35.0569278" id="Fill-6" fill="#F2F2F2"></path>
            <path d="M69.1733778,65.4824889 C68.7502667,66.0803222 68.0513778,66.4590444 67.2646556,66.4590444 L17.7162667,66.4590444 C16.9295444,66.4590444 16.2297111,66.0803222 15.8075444,65.4824889 L31.6194333,42.9537111 L42.0527111,49.5402667 L42.4899889,49.8169889 L42.9272667,49.5402667 L53.3614889,42.9537111 L69.1733778,65.4824889 Z" id="Fill-24" fill="#B7C1D2"></path>
            <path d="M44.4891549,32.0811016 C44.2533071,32.0366487 44.0100928,32.0144226 43.7595045,32.0144226 C43.3025495,32.0144226 42.8750819,32.11444 42.4770888,32.3144778 C42.0790957,32.5145156 41.7345421,32.7849331 41.4434175,33.1257382 C41.1522929,33.4665433 40.9219763,33.8573521 40.7524607,34.2981761 C40.5829451,34.7390002 40.4981886,35.1964872 40.4981886,35.6706509 C40.4981886,36.1448145 40.5995279,36.5133972 40.8022096,36.7764099 C41.0048913,37.0394225 41.3015391,37.1709269 41.6921619,37.1709269 C41.8837882,37.1709269 42.0772542,37.1412921 42.2725656,37.0820216 C42.467877,37.0227512 42.6539728,36.9171773 42.8308587,36.7652967 C43.0077445,36.6134161 43.1698874,36.4115292 43.3172922,36.1596297 C43.4646971,35.9077303 43.5863042,35.5928607 43.6821174,35.2150115 L44.4891549,32.0811016 Z M45.7826259,34.9260694 C45.6647021,35.4002331 45.6075835,35.7873375 45.6112687,36.0873942 C45.6149538,36.3874509 45.6610171,36.6245292 45.74946,36.7986362 C45.8379029,36.9727431 45.9631952,37.0931345 46.1253405,37.1598137 C46.2874858,37.226493 46.4717391,37.2598321 46.6781059,37.2598321 C46.9876561,37.2598321 47.2806188,37.1616669 47.5570029,36.9653335 C47.833387,36.7690001 48.0747588,36.4930262 48.2811256,36.1374034 C48.4874924,35.7817806 48.6514778,35.3594849 48.7730868,34.8705036 C48.8946958,34.3815224 48.9554994,33.8480962 48.9554994,33.2702092 C48.9554994,32.3070642 48.8062542,31.4587685 48.5077594,30.7252966 C48.2092646,29.9918246 47.7910096,29.378755 47.2529819,28.8860693 C46.7149542,28.3933836 46.0755953,28.0229488 45.334886,27.7747537 C44.5941766,27.5265587 43.7816196,27.402463 42.8971905,27.402463 C41.9243185,27.402463 41.0251624,27.5858282 40.1996953,27.9525642 C39.3742282,28.3193002 38.6574829,28.8212394 38.0494379,29.4583968 C37.4413929,30.0955543 36.9660194,30.8475369 36.6233031,31.7143674 C36.2805868,32.5811979 36.1092313,33.5146936 36.1092313,34.5148827 C36.1092313,35.7299271 36.2971696,36.7986316 36.673052,37.7210281 C37.0489344,38.6434246 37.5648436,39.4139291 38.2207951,40.0325645 C38.8767467,40.6511999 39.648768,41.1160956 40.5368822,41.4272655 C41.4249964,41.7384354 42.3849561,41.8940181 43.41679,41.8940181 C43.9842986,41.8940181 44.5149481,41.8625311 45.0087544,41.7995562 C45.5025606,41.7365814 45.9558237,41.6513814 46.3685573,41.5439537 C46.7812908,41.436526 47.1571676,41.3142825 47.4961987,41.1772195 C47.8352299,41.0401566 48.1374053,40.8938348 48.402734,40.7382499 C48.5943603,40.6271178 48.7638733,40.5937786 48.9112782,40.6382315 C49.058683,40.6826843 49.1655499,40.7938148 49.2318821,40.9716261 L49.6077626,41.960697 C48.8412574,42.4644959 47.9457864,42.8756786 46.9213227,43.1942573 C45.896859,43.512836 44.7286931,43.672123 43.41679,43.672123 C42.0827761,43.672123 40.8482791,43.4609751 39.7132617,43.0386731 C38.5782444,42.6163711 37.5961744,42.0107102 36.7670221,41.2216722 C35.9378699,40.4326341 35.2892983,39.4713558 34.8212879,38.3378082 C34.3532775,37.2042607 34.1192758,35.9299649 34.1192758,34.5148827 C34.1192758,33.7221403 34.2206151,32.9516358 34.4232968,32.2033463 C34.6259784,31.4550567 34.9152561,30.7530827 35.2911385,30.0974033 C35.6670208,29.4417238 36.1202839,28.8397672 36.6509414,28.2915155 C37.1815988,27.7432637 37.7712094,27.2728115 38.4197907,26.8801447 C39.068372,26.4874779 39.7703771,26.1818691 40.5258269,25.9633093 C41.2812767,25.7447495 42.0717234,25.6354712 42.8971905,25.6354712 C43.9437649,25.6354712 44.9479454,25.8114278 45.909762,26.1633461 C46.8715786,26.5152645 47.7228288,27.0190558 48.4635382,27.6747353 C49.2042475,28.3304148 49.7957006,29.130554 50.2379151,30.0751769 C50.6801297,31.0197999 50.9012336,32.0848 50.9012336,33.2702092 C50.9012336,34.0629516 50.7851541,34.8056734 50.5529914,35.4983969 C50.3208288,36.1911205 49.996543,36.793077 49.5801243,37.3042848 C49.1637056,37.8154925 48.6735919,38.2174143 48.1097683,38.5100622 C47.5459448,38.80271 46.9323813,38.9490318 46.2690595,38.9490318 C45.7605128,38.9490318 45.3109347,38.8304927 44.9203119,38.5934108 C44.5296891,38.356329 44.2606793,37.9747811 44.1132744,37.4487558 C43.6784301,37.9821899 43.2177969,38.3637378 42.7313609,38.5934108 C42.2449249,38.8230839 41.7179605,38.9379186 41.1504518,38.9379186 C40.6861265,38.9379186 40.2826118,38.856423 39.9398956,38.6934292 C39.5971793,38.5304355 39.3097442,38.3063224 39.0775815,38.0210833 C38.8454189,37.7358442 38.6722208,37.3987485 38.557982,37.0097861 C38.4437433,36.6208237 38.3866248,36.1966759 38.3866248,35.7373298 C38.3866248,35.3150278 38.4400582,34.8871755 38.5469267,34.4537603 C38.6537952,34.0203451 38.8140956,33.6017537 39.0278326,33.1979737 C39.2415697,32.7941937 39.5087369,32.4163502 39.8293425,32.0644318 C40.149948,31.7125135 40.5258247,31.4050526 40.9569839,31.1420399 C41.3881431,30.8790272 41.8745718,30.6715837 42.4162846,30.5197032 C42.9579974,30.3678226 43.5531355,30.2918835 44.2017169,30.2918835 C44.7765958,30.2918835 45.2667095,30.3363357 45.6720729,30.4252414 C46.0774362,30.514147 46.4680532,30.6400949 46.8439355,30.8030886 L45.7826259,34.9260694 Z" id="@" fill="#EF476F"></path>
        </g>
    </g>
</svg>