<svg width="179" height="48" xmlns="http://www.w3.org/2000/svg"><path d="M28.874 22.654c-.047-5.156 4.281-7.665 4.48-7.782-2.452-3.525-6.251-4.006-7.586-4.045-3.191-.331-6.286 1.883-7.912 1.883-1.658 0-4.16-1.85-6.859-1.796-3.471.052-6.719 2.035-8.5 5.113-3.676 6.277-.934 15.501 2.587 20.575 1.762 2.484 3.82 5.259 6.515 5.161 2.636-.107 3.621-1.657 6.802-1.657 3.152 0 4.077 1.657 6.825 1.595 2.83-.045 4.61-2.496 6.31-5.003 2.036-2.848 2.854-5.653 2.886-5.797-.066-.023-5.494-2.066-5.548-8.247M23.683 7.49c1.418-1.75 2.388-4.128 2.119-6.543-2.052.09-4.619 1.4-6.096 3.11-1.308 1.508-2.476 3.978-2.174 6.301 2.305.17 4.672-1.147 6.151-2.868m37.031 25.038l-1.825-5.56c-.193-.568-.555-1.906-1.089-4.011h-.065a153.22 153.22 0 01-1.025 4.011l-1.793 5.56h5.797zm6.31 8.878H63.34l-2.018-6.254h-7.014l-1.923 6.254h-3.587l6.95-21.292h4.292l6.984 21.292zm14.349-7.74c0-1.495-.341-2.727-1.026-3.696-.747-1.012-1.752-1.517-3.01-1.517-.854 0-1.63.281-2.322.837-.694.56-1.148 1.29-1.36 2.196-.108.423-.161.768-.161 1.04v2.56c0 1.117.347 2.06 1.041 2.83.694.769 1.596 1.153 2.706 1.153 1.303 0 2.316-.496 3.042-1.485.726-.99 1.09-2.296 1.09-3.918m3.523-.125c0 2.611-.715 4.675-2.146 6.19-1.282 1.349-2.873 2.023-4.773 2.023-2.05 0-3.523-.727-4.42-2.18h-.065v8.088h-3.459V31.107c0-1.641-.043-3.326-.128-5.054h3.042l.193 2.433h.065c1.153-1.833 2.904-2.748 5.253-2.748 1.836 0 3.369.715 4.595 2.147 1.23 1.433 1.843 3.318 1.843 5.656m14.381.125c0-1.495-.342-2.727-1.027-3.696-.748-1.012-1.748-1.517-3.009-1.517-.855 0-1.629.281-2.323.837-.694.56-1.147 1.29-1.36 2.196-.105.423-.16.768-.16 1.04v2.56c0 1.117.347 2.06 1.038 2.83.695.767 1.596 1.153 2.71 1.153 1.302 0 2.316-.496 3.041-1.485.727-.99 1.09-2.296 1.09-3.918m3.524-.125c0 2.611-.716 4.675-2.148 6.19-1.28 1.349-2.872 2.023-4.771 2.023-2.05 0-3.524-.727-4.42-2.18h-.064v8.088h-3.459V31.107c0-1.641-.043-3.326-.128-5.054h3.042l.193 2.433h.065c1.152-1.833 2.902-2.748 5.253-2.748 1.834 0 3.367.715 4.597 2.147 1.225 1.433 1.84 3.318 1.84 5.656m20.018 1.894c0 1.811-.638 3.285-1.918 4.423-1.406 1.243-3.364 1.864-5.88 1.864-2.323 0-4.186-.442-5.595-1.327l.801-2.843c1.519.906 3.185 1.36 5 1.36 1.302 0 2.316-.291 3.045-.87.725-.58 1.087-1.357 1.087-2.327 0-.864-.299-1.592-.897-2.182-.596-.59-1.59-1.14-2.979-1.647-3.78-1.39-5.668-3.427-5.668-6.105 0-1.75.662-3.186 1.987-4.303 1.32-1.118 3.083-1.676 5.286-1.676 1.964 0 3.596.337 4.899 1.01l-.865 2.782c-1.217-.653-2.592-.98-4.132-.98-1.216 0-2.167.296-2.848.885-.576.527-.865 1.168-.865 1.928 0 .842.33 1.538.991 2.085.576.506 1.622 1.053 3.14 1.643 1.858.738 3.222 1.6 4.1 2.589.874.986 1.31 2.22 1.31 3.691m11.436-6.822h-3.812v7.454c0 1.896.671 2.843 2.018 2.843.618 0 1.13-.052 1.536-.158l.096 2.59c-.682.252-1.579.378-2.69.378-1.366 0-2.433-.411-3.204-1.232-.767-.822-1.153-2.202-1.153-4.14V28.61h-2.271v-2.56h2.27v-2.812l3.398-1.01v3.822h3.812v2.563m13.612 5.101c0-1.416-.307-2.63-.928-3.644-.725-1.225-1.762-1.836-3.105-1.836-1.39 0-2.446.612-3.171 1.836-.622 1.015-.928 2.248-.928 3.708 0 1.416.306 2.63.928 3.641.747 1.226 1.792 1.837 3.14 1.837 1.32 0 2.357-.624 3.105-1.869.638-1.032.959-2.259.959-3.673m3.588-.11c0 2.36-.684 4.297-2.05 5.812-1.433 1.56-3.334 2.338-5.704 2.338-2.284 0-4.103-.748-5.459-2.242-1.356-1.494-2.034-3.38-2.034-5.654 0-2.38.698-4.328 2.098-5.844 1.396-1.516 3.281-2.275 5.651-2.275 2.284 0 4.122.747 5.51 2.243 1.326 1.452 1.988 3.325 1.988 5.621m11.242-4.55a6.087 6.087 0 00-1.09-.095c-1.217 0-2.157.453-2.82 1.36-.575.8-.864 1.812-.864 3.032v8.056h-3.457l.033-10.518c0-1.77-.044-3.38-.13-4.834h3.012l.127 2.938h.096c.365-1.01.94-1.822 1.729-2.432.77-.549 1.603-.822 2.5-.822.32 0 .608.022.864.062v3.253m12.17 3.065c.023-1.01-.203-1.884-.671-2.622-.599-.949-1.519-1.422-2.757-1.422-1.13 0-2.05.462-2.752 1.39-.576.738-.919 1.622-1.024 2.653h7.204v.001zm3.298.885c0 .611-.04 1.127-.126 1.547h-10.376c.04 1.517.542 2.677 1.505 3.477.875.715 2.005 1.074 3.394 1.074 1.536 0 2.938-.242 4.198-.727l.542 2.368c-1.473.634-3.212.95-5.219.95-2.413 0-4.308-.702-5.687-2.102-1.376-1.4-2.065-3.28-2.065-5.638 0-2.315.64-4.243 1.924-5.78 1.343-1.642 3.158-2.463 5.442-2.463 2.244 0 3.942.82 5.096 2.462.913 1.304 1.372 2.917 1.372 4.832zM57.777 7.06c0-1.22-.327-2.156-.983-2.809-.655-.651-1.612-.977-2.873-.977-.535 0-.99.035-1.369.108v7.823c.21.032.592.046 1.149.046 1.3 0 2.305-.357 3.012-1.07.708-.714 1.064-1.754 1.064-3.12m1.793-.047c0 1.884-.573 3.301-1.716 4.253-1.06.879-2.565 1.319-4.515 1.319a21.22 21.22 0 01-2.487-.125V2.17a18.601 18.601 0 012.928-.217c1.858 0 3.258.398 4.202 1.195 1.058.9 1.588 2.189 1.588 3.865m7.741 1.701c0-.696-.152-1.293-.456-1.79-.356-.602-.864-.903-1.524-.903-.683 0-1.203.3-1.56.902-.304.498-.455 1.104-.455 1.821 0 .696.152 1.293.456 1.79.368.602.88.903 1.542.903.65 0 1.159-.306 1.525-.919.315-.507.472-1.108.472-1.804m1.764-.055c0 1.16-.336 2.11-1.008 2.856-.704.767-1.637 1.149-2.801 1.149-1.123 0-2.017-.366-2.684-1.102-.665-.735-.997-1.661-.997-2.778 0-1.168.342-2.126 1.03-2.87.688-.744 1.612-1.117 2.777-1.117 1.123 0 2.025.366 2.708 1.1.649.714.975 1.636.975 2.762M81.819 4.95l-2.393 7.543h-1.557l-.992-3.275a24.236 24.236 0 01-.614-2.437h-.031a17.64 17.64 0 01-.615 2.437l-1.053 3.275H72.99L70.74 4.95h1.747l.865 3.586c.209.848.381 1.656.519 2.42h.03c.127-.63.337-1.433.632-2.404l1.085-3.6h1.385l1.04 3.523c.252.86.456 1.687.613 2.483h.047a23.44 23.44 0 01.52-2.483l.928-3.523h1.669V4.95zm8.813 7.543h-1.7v-4.32c0-1.331-.512-1.997-1.54-1.997-.505 0-.913.182-1.229.549a1.931 1.931 0 00-.472 1.293v4.473h-1.7V7.106c0-.663-.021-1.381-.062-2.159h1.494l.08 1.18h.047c.198-.367.493-.67.88-.911a2.902 2.902 0 011.542-.424c.714 0 1.307.227 1.78.683.587.559.88 1.392.88 2.5v4.518zm2.99 0h1.699V1.49h-1.699zm9.943-3.779c0-.696-.153-1.293-.456-1.79-.355-.602-.865-.903-1.523-.903-.685 0-1.204.3-1.56.902-.304.498-.455 1.104-.455 1.821 0 .696.152 1.293.456 1.79.368.602.88.903 1.542.903.65 0 1.157-.306 1.524-.919.316-.507.472-1.108.472-1.804m1.765-.055c0 1.16-.336 2.11-1.008 2.856-.704.767-1.638 1.149-2.801 1.149-1.125 0-2.018-.366-2.683-1.102-.666-.735-.998-1.661-.998-2.778 0-1.168.342-2.126 1.03-2.87.688-.744 1.612-1.117 2.776-1.117 1.124 0 2.024.366 2.709 1.1.649.714.975 1.636.975 2.762m6.463 1.241V8.739c-1.876-.032-2.813.475-2.813 1.52 0 .393.107.688.326.884.219.197.498.295.83.295.373 0 .722-.117 1.04-.349a1.427 1.427 0 00.617-1.187m1.765 2.592h-1.527l-.126-.869h-.048c-.522.693-1.266 1.04-2.233 1.04-.722 0-1.306-.229-1.746-.683-.399-.413-.598-.927-.598-1.536 0-.922.389-1.624 1.172-2.11.782-.487 1.882-.725 3.298-.714V7.48c0-.994-.528-1.49-1.588-1.49-.754 0-1.42.188-1.993.559l-.346-1.101c.71-.434 1.588-.651 2.623-.651 1.999 0 3.001 1.04 3.001 3.12v2.777c0 .754.038 1.354.11 1.799m7.899-3.181V8.054c0-.217-.016-.393-.047-.528a1.905 1.905 0 00-.615-1.016 1.685 1.685 0 00-1.137-.41c-.634 0-1.13.247-1.496.745-.361.497-.545 1.133-.545 1.909 0 .745.174 1.35.523 1.816.368.496.864.744 1.486.744.558 0 1.004-.207 1.343-.621.328-.383.488-.843.488-1.381m1.762 3.18h-1.509l-.08-1.21h-.046c-.482.921-1.303 1.382-2.456 1.382-.922 0-1.69-.357-2.297-1.07-.609-.714-.912-1.64-.912-2.778 0-1.22.33-2.21.991-2.965.64-.704 1.426-1.056 2.36-1.056 1.027 0 1.746.341 2.155 1.024h.032V1.49h1.702v8.972c0 .734.02 1.411.06 2.032m12.778-3.78c0-.696-.152-1.293-.456-1.79-.358-.602-.864-.903-1.526-.903-.682 0-1.2.3-1.56.902-.304.498-.455 1.104-.455 1.821 0 .696.152 1.293.456 1.79.368.602.88.903 1.543.903.648 0 1.16-.306 1.526-.919.313-.507.472-1.108.472-1.804m1.762-.055c0 1.16-.336 2.11-1.008 2.856-.704.767-1.635 1.149-2.801 1.149-1.121 0-2.015-.366-2.683-1.102-.665-.735-.998-1.661-.998-2.778 0-1.168.342-2.126 1.03-2.87.688-.744 1.613-1.117 2.779-1.117 1.121 0 2.025.366 2.706 1.1.649.714.975 1.636.975 2.762m9.142 3.834h-1.7v-4.32c0-1.331-.512-1.997-1.542-1.997-.505 0-.912.182-1.227.549a1.923 1.923 0 00-.472 1.293v4.473h-1.701V7.106c0-.663-.02-1.381-.06-2.159h1.492l.08 1.18h.047c.2-.367.494-.67.88-.911a2.909 2.909 0 011.543-.424c.712 0 1.306.227 1.778.683.59.559.881 1.392.881 2.5v4.518zm11.44-6.287h-1.871V9.87c0 .932.332 1.397.99 1.397.306 0 .559-.025.758-.078l.044 1.272c-.336.125-.777.187-1.32.187-.672 0-1.194-.202-1.572-.605-.38-.403-.568-1.081-.568-2.033V6.206h-1.118V4.95h1.118V3.568l1.666-.496v1.877h1.872v1.257h.002zm9 6.287h-1.701V8.205c0-1.352-.513-2.029-1.54-2.029-.788 0-1.326.392-1.622 1.176a2.08 2.08 0 00-.08.603v4.536H160.7V1.49h1.699v4.545h.032c.536-.827 1.303-1.24 2.297-1.24.704 0 1.287.227 1.75.683.575.568.864 1.413.864 2.53v4.485m7.66-4.562c.013-.497-.098-.926-.329-1.288-.295-.465-.744-.699-1.353-.699-.555 0-1.007.227-1.353.683a2.51 2.51 0 00-.504 1.304h3.54m1.622.434c0 .3-.023.553-.064.76h-5.098c.022.745.266 1.313.738 1.707.431.352.988.528 1.67.528.753 0 1.441-.118 2.061-.357l.266 1.165c-.725.31-1.578.466-2.566.466-1.185 0-2.117-.344-2.792-1.032-.678-.688-1.014-1.612-1.014-2.77 0-1.138.313-2.085.944-2.84.659-.806 1.55-1.21 2.674-1.21 1.1 0 1.935.404 2.5 1.21.455.64.68 1.432.68 2.373" fill="#757575" fill-rule="evenodd"/></svg>