<svg width="190" height="45" xmlns="http://www.w3.org/2000/svg"><defs><linearGradient x1="90.174%" y1="94.473%" x2="-39.895%" y2="27.453%" id="a"><stop stop-color="#4998D3" offset="0%"/><stop stop-color="#4A99D3" offset="1%"/><stop stop-color="#42BAEB" offset="26%"/><stop stop-color="#41C7F2" offset="51%"/><stop stop-color="#56C9E9" offset="76%"/><stop stop-color="#5BCAE8" offset="100%"/></linearGradient><linearGradient x1="106.563%" y1="50.414%" x2="-131.844%" y2="50.414%" id="b"><stop stop-color="#FEE000" offset="0%"/><stop stop-color="#FEBD11" offset="41%"/><stop stop-color="#FAA51A" offset="78%"/><stop stop-color="#F99B1C" offset="100%"/></linearGradient><linearGradient x1="35.59%" y1="46.224%" x2="-100.687%" y2="-129.955%" id="c"><stop stop-color="#EF4149" offset="0%"/><stop stop-color="#C31E63" offset="100%"/></linearGradient><linearGradient x1="-67.686%" y1="189.55%" x2="-7.214%" y2="110.206%" id="d"><stop stop-color="#32A072" offset="0%"/><stop stop-color="#2CA772" offset="7%"/><stop stop-color="#4BBA71" offset="48%"/><stop stop-color="#5EBD6B" offset="80%"/><stop stop-color="#66BE69" offset="100%"/></linearGradient></defs><g fill="none" fill-rule="evenodd"><path d="M1.137.19C.65.68.487 1.658.487 2.474V38.23c0 .817.325 1.633.65 2.286l.163.163 20.148-20.081v-.49L1.138.189z" transform="translate(.208 1.947)" fill="url(#a)"/><path d="M6.987 14.067L.325 7.373v-.49L6.987.19l.162.164 7.962 4.571c2.275 1.306 2.275 3.429 0 4.735l-8.124 4.408z" transform="translate(21.331 15.008)" fill="url(#b)"/><path d="M27.633 7.184L20.647.327.499 20.57c.975.817 2.437.817 3.412.164l23.722-13.55" transform="translate(.847 21.891)" fill="url(#c)"/><path d="M27.633 14.054L3.75.666C2.774.013 1.31.013.336.83l20.31 20.082 6.987-6.857z" transform="translate(.847 1.307)" fill="url(#d)"/><path d="M61.627 6.381c0 1.143-.488 2.449-1.138 3.265a5.028 5.028 0 01-3.574 1.47c-1.3 0-2.763-.49-3.575-1.47-1.137-.98-1.625-2.285-1.625-3.592 0-1.469.488-2.775 1.463-3.591.974-.98 2.274-1.633 3.574-1.47.65 0 1.3.163 1.95.49.487.327 1.137.49 1.625 1.143l-.813.49a3.91 3.91 0 00-2.762-1.143c-1.137 0-2.112.49-2.925 1.306a3.948 3.948 0 00-1.137 2.775c0 .98.488 2.123 1.137 2.776a3.91 3.91 0 002.763 1.143c1.137 0 1.95-.49 2.762-1.143.487-.653.812-1.47.975-2.123h-3.575V5.565h4.712c.163.326.163.653.163.816zM69.1 2.3h-4.386v3.265h3.9v1.142h-3.9V9.81H69.1v1.142h-5.687V1.156H69.1zm5.2 8.652H73V2.3h-2.762V1.156H76.9V2.3h-2.762v8.653zm7.637 0V1.156h1.3v9.633c-.163.163-1.3.163-1.3.163zm5.524 0V2.3H84.7V1.156h6.662V2.3H88.6c.162 0 .162 8.653.162 8.653h-1.3zm16.736-1.306c-1.95 1.96-5.037 1.96-7.312 0a5.078 5.078 0 01-1.462-3.592c0-1.306.487-2.775 1.462-3.591 2.113-2.123 5.2-2.123 7.312-.164a5.078 5.078 0 011.462 3.592c0 1.47-.487 2.776-1.462 3.755zM97.86 8.83c1.462 1.47 3.9 1.47 5.2 0a3.948 3.948 0 001.137-2.776c0-.98-.488-1.959-1.137-2.775-1.463-1.47-3.9-1.47-5.2 0a3.948 3.948 0 00-1.137 2.775c0 .98.487 1.96 1.137 2.776zm9.587 2.122V1.156h1.624l4.712 7.51v-7.51h1.3v9.633h-1.3l-5.037-8v7.836l-1.3.327z" stroke="#757575" stroke-width=".787" fill="#757575"/><path d="M95.26 24.993c-3.9 0-6.824 3.102-6.661 7.02.162 3.919 3.087 6.858 6.986 6.694 3.737 0 6.662-3.102 6.662-6.857 0-3.755-2.925-6.857-6.987-6.857zm0 11.102c-2.274.164-4.224-1.632-4.387-3.918-.162-2.286 1.625-4.245 3.9-4.408 2.275-.164 4.225 1.632 4.387 3.918v.327c.162 2.122-1.625 4.081-3.9 4.081zM80.15 24.993c-3.9 0-6.825 3.102-6.662 7.02 0 3.919 3.087 6.858 6.987 6.694 3.737 0 6.661-3.102 6.661-6.857 0-3.755-3.087-6.857-6.986-6.857zm0 11.102c-2.275.164-4.225-1.632-4.387-3.918-.163-2.286 1.624-4.245 3.9-4.408 2.274-.164 4.224 1.632 4.386 3.918v.327c0 2.122-1.625 4.081-3.9 4.081zm-18.036-8.98v2.94h7.15c-.163 1.469-.65 2.775-1.626 3.755-1.462 1.469-3.412 2.285-5.361 2.122-4.225-.163-7.475-3.918-7.312-8.163.162-3.919 3.412-7.347 7.312-7.347 1.95 0 3.9.653 5.199 2.122l2.112-1.959c-1.95-1.96-4.712-2.939-7.311-2.939-5.85-.326-10.724 4.408-11.05 10.286-.324 5.878 4.388 10.775 10.237 11.102h.813c2.762.163 5.524-.98 7.474-2.939 1.95-2.449 2.924-5.55 2.437-8.653H62.114v-.326zm73.767 2.286c-.812-2.612-3.25-4.245-6.012-4.408-3.574 0-6.5 2.776-6.5 6.53v.327c-.162 3.755 2.763 6.857 6.5 7.02h.325c2.275 0 4.55-1.142 5.85-2.938l-2.438-1.633c-.65 1.143-1.95 1.796-3.412 1.796a3.788 3.788 0 01-3.412-2.122l9.261-3.919-.162-.653zm-9.424 2.286c-.162-2.122 1.462-3.918 3.575-3.918h.162c1.137-.164 2.112.49 2.6 1.47l-6.337 2.448zm-7.637 6.694h2.925V18.136h-2.925v20.245zm-4.874-11.755c-1.138-.98-2.437-1.633-3.9-1.633-3.9.163-6.661 3.429-6.499 7.347.162 3.592 2.925 6.367 6.5 6.53 1.462 0 2.761-.489 3.736-1.632h.163v.98c.325 1.959-.975 3.755-2.925 3.918h-.65c-1.625 0-2.924-.98-3.574-2.449l-2.6 1.143c.975 2.449 3.412 4.082 6.174 4.082 3.575 0 6.5-2.123 6.5-7.184V25.483h-2.925v1.143zm-3.575 9.47c-2.274-.164-3.9-2.123-3.9-4.409.163-2.122 1.788-3.918 3.9-3.918 2.113.163 3.9 1.796 3.737 4.081v.164c.163 2.285-1.462 4.081-3.737 4.081zm39.646-17.96h-7.312v20.245h2.925v-7.674h4.224c3.413.327 6.337-2.448 6.662-5.877.325-3.429-2.437-6.367-5.85-6.694h-.65zm0 9.796h-4.225v-7.02h4.225c1.95 0 3.575 1.632 3.575 3.428 0 1.96-1.463 3.592-3.575 3.592zm19.01-2.939c-2.274-.163-4.387 1.143-5.362 3.102l2.763 1.143c.487-.98 1.624-1.633 2.762-1.47 1.625-.163 3.087.98 3.25 2.613v.163c-.975-.49-2.113-.816-3.25-.653-2.762 0-5.85 1.633-5.85 4.572.163 2.612 2.275 4.571 5.037 4.408h.163c1.625.163 2.925-.653 3.9-1.96h.162v1.633h2.925v-7.837c-.325-3.591-3.088-5.714-6.5-5.714zm-.487 11.102c-1.137.164-2.112-.49-2.437-1.632 0-1.633 1.624-2.123 3.25-2.123.974 0 1.95.327 2.761.653-.162 1.796-1.787 3.102-3.574 3.102zm17.223-10.612l-3.575 8.653-3.574-8.653h-3.25l5.362 12.245-3.087 6.857h3.25l8.449-19.102h-3.575zm-27.297 12.898h2.925V18.136h-2.925v20.245z" fill="#757575"/></g></svg>