<?xml version="1.0" encoding="UTF-8"?>
<svg width="134px" height="61px" viewBox="0 0 134 61" version="1.1" xmlns="http://www.w3.org/2000/svg" xmlns:xlink="http://www.w3.org/1999/xlink">
    <!-- Generator: Sketch 55.2 (78181) - https://sketchapp.com -->
    <title>ill_password</title>
    <desc>Created with Sketch.</desc>
    <defs>
        <path d="M123.986441,14.3617544 L123.086102,14.3617544 L123.086102,9.01087719 C123.086117,4.34408419 119.257773,0.557589203 114.527458,0.545789474 L110.188475,0.545789474 C105.458159,0.557589203 101.629815,4.34408419 101.629831,9.01087719 L101.629831,14.3617544 L100.447458,14.3617544 C98.5406027,14.3676517 96.9979567,15.8943628 96.9979661,17.775614 L96.9979661,29.0124561 L96.9979661,29.0124561 C96.9979661,29.1765497 96.9979661,29.3406433 96.9979661,29.5047368 L96.9979661,29.5047368 C96.986439,29.6650617 96.986439,29.8259909 96.9979661,29.9863158 C97.5143184,35.6779143 102.346157,40.0410309 108.138305,40.0459649 L116.241356,40.0459649 C121.968625,40.038091 126.766189,35.766736 127.36,30.1468421 C127.402133,29.9353052 127.423924,29.7203159 127.425085,29.5047368 L127.425085,17.732807 C127.401474,15.8724284 125.87226,14.3732733 123.986441,14.3617544 Z M105.545763,9.01087719 C105.545735,6.47182324 107.625727,4.41020321 110.199322,4.39842105 L114.538305,4.39842105 C117.1119,4.41020321 119.191864,6.47182324 119.191864,9.01087719 L119.191864,14.3617544 L105.51322,14.3617544 L105.545763,9.01087719 Z" id="path-1"></path>
    </defs>
    <g id="ill_password" stroke="none" stroke-width="1" fill="none" fill-rule="evenodd">
        <g transform="translate(3.333333, 10.000000)">
            <polygon id="Shape" fill="#234075" fill-rule="nonzero" points="12.6372881 22.4736842 0 19.0063158 2.56 11.7719298 14.8718644 16.7696491 13.9064407 3.32824561 22.1613559 3.32824561 21.1633898 17.037193 33.0955932 12.1464912 35.6013559 19.434386 22.8989831 22.9017544 31.3491525 33.0149123 24.6779661 37.5203509 17.6054237 26.3049123 10.5111864 37.1457895 3.84 32.8650877"></polygon>
            <polygon id="Shape" fill="#234075" fill-rule="nonzero" points="59.8128814 22.4736842 47.2298305 19.0384211 49.7464407 11.7719298 62.0583051 16.7696491 61.0928814 3.32824561 69.3477966 3.32824561 68.3389831 17.0585965 80.2711864 12.1678947 82.7769492 19.4557895 70.0745763 22.9017544 78.5247458 33.0149123 71.8535593 37.5203509 64.7918644 26.3049123 57.6976271 37.1457895 51.0264407 32.8650877"></polygon>
            <mask id="mask-2" fill="white">
                <use xlink:href="#path-1"></use>
            </mask>
            <use id="Mask" fill="#EF476F" fill-rule="nonzero" xlink:href="#path-1"></use>
            <path d="M95.3166102,12.3819298 C95.3166102,12.3819298 92.4311864,42.9675439 138.261695,41.5977193 L92.4311864,42.9782456 L95.3166102,12.3819298 Z" id="Shape" fill="#F2F2F2" fill-rule="nonzero" opacity="0.1" style="mix-blend-mode: multiply;" mask="url(#mask-2)"></path>
        </g>
    </g>
</svg>